<mxfile>
    <diagram id="SRzY7z5u4aiHBX6bJDKG" name="Page-1">
        <mxGraphModel dx="460" dy="400" grid="1" gridSize="10" guides="1" tooltips="1" connect="1" arrows="1" fold="1" page="1" pageScale="1" pageWidth="827" pageHeight="1169" math="0" shadow="0">
            <root>
                <mxCell id="0"/>
                <mxCell id="1" parent="0"/>
                <mxCell id="23" value=".NET 5 Process&lt;br&gt;(ASP.NET Core)" style="rounded=0;whiteSpace=wrap;html=1;verticalAlign=top;" parent="1" vertex="1">
                    <mxGeometry x="429.5" y="400" width="260" height="230" as="geometry"/>
                </mxCell>
                <mxCell id="4" style="edgeStyle=orthogonalEdgeStyle;rounded=0;orthogonalLoop=1;jettySize=auto;html=1;entryX=0.5;entryY=1;entryDx=0;entryDy=0;" parent="1" source="29" target="3" edge="1">
                    <mxGeometry relative="1" as="geometry">
                        <mxPoint x="225" y="647" as="sourcePoint"/>
                    </mxGeometry>
                </mxCell>
                <mxCell id="3" value="Extension Host Process&lt;br&gt;(Node.js)&lt;br&gt;&lt;br&gt;" style="rounded=0;whiteSpace=wrap;html=1;verticalAlign=bottom;" parent="1" vertex="1">
                    <mxGeometry x="130" y="460" width="190" height="140" as="geometry"/>
                </mxCell>
                <mxCell id="13" value="OpenXML Package Explorer&lt;br&gt;(Bundle / JS Code)" style="rounded=1;whiteSpace=wrap;html=1;" parent="1" vertex="1">
                    <mxGeometry x="140" y="470" width="170" height="80" as="geometry"/>
                </mxCell>
                <mxCell id="22" style="edgeStyle=orthogonalEdgeStyle;rounded=0;orthogonalLoop=1;jettySize=auto;html=1;entryX=1;entryY=0.75;entryDx=0;entryDy=0;fontColor=#f0f0f0;exitX=-0.003;exitY=0.487;exitDx=0;exitDy=0;exitPerimeter=0;" parent="1" source="18" target="13" edge="1">
                    <mxGeometry relative="1" as="geometry">
                        <mxPoint x="570" y="530" as="sourcePoint"/>
                        <Array as="points">
                            <mxPoint x="499" y="530"/>
                        </Array>
                    </mxGeometry>
                </mxCell>
                <mxCell id="18" value="Fable.Remoting&lt;br&gt;(Web API)" style="rounded=0;whiteSpace=wrap;html=1;labelBackgroundColor=none;verticalAlign=top;" parent="1" vertex="1">
                    <mxGeometry x="457" y="450" width="205" height="160" as="geometry"/>
                </mxCell>
                <mxCell id="20" value="System.IO.Packaging" style="label;whiteSpace=wrap;html=1;align=center;verticalAlign=bottom;spacingLeft=0;spacingBottom=4;imageAlign=center;imageVerticalAlign=top;image=img/clipart/Gear_128x128.png;labelBackgroundColor=none;" parent="1" vertex="1">
                    <mxGeometry x="479.5" y="505" width="160" height="90" as="geometry"/>
                </mxCell>
                <mxCell id="21" style="edgeStyle=orthogonalEdgeStyle;rounded=0;orthogonalLoop=1;jettySize=auto;html=1;fontColor=#f0f0f0;" parent="1" edge="1">
                    <mxGeometry relative="1" as="geometry">
                        <mxPoint x="310" y="491" as="sourcePoint"/>
                        <mxPoint x="460" y="491" as="targetPoint"/>
                    </mxGeometry>
                </mxCell>
                <mxCell id="24" value="Axios" style="text;html=1;strokeColor=none;fillColor=none;align=center;verticalAlign=middle;whiteSpace=wrap;rounded=0;labelBackgroundColor=none;" parent="1" vertex="1">
                    <mxGeometry x="367" y="500" width="40" height="20" as="geometry"/>
                </mxCell>
                <mxCell id="30" value="" style="pointerEvents=1;shadow=0;dashed=0;html=1;strokeColor=none;fillColor=#505050;labelPosition=center;verticalLabelPosition=bottom;verticalAlign=top;outlineConnect=0;align=center;shape=mxgraph.office.concepts.web_services;fontColor=#000000;" vertex="1" parent="1">
                    <mxGeometry x="407" y="382" width="60" height="56" as="geometry"/>
                </mxCell>
                <mxCell id="31" value="F# Source Code" style="pointerEvents=1;shadow=0;dashed=0;html=1;strokeColor=none;fillColor=#505050;labelPosition=center;verticalLabelPosition=bottom;verticalAlign=top;outlineConnect=0;align=center;shape=mxgraph.office.concepts.document;fontColor=#000000;" vertex="1" parent="1">
                    <mxGeometry x="50" y="531.5" width="30" height="37" as="geometry"/>
                </mxCell>
                <mxCell id="36" value="" style="outlineConnect=0;dashed=0;verticalLabelPosition=bottom;verticalAlign=top;align=center;html=1;shape=mxgraph.aws3.android;fillColor=#8CC64F;gradientColor=none;fontColor=#000000;" vertex="1" parent="1">
                    <mxGeometry x="290" y="566" width="60" height="64" as="geometry"/>
                </mxCell>
                <mxCell id="38" value="Fable 3" style="shape=flexArrow;endArrow=classic;html=1;fontColor=#000000;width=18;endSize=7.244;endWidth=29.20332936979786;" edge="1" parent="1">
                    <mxGeometry x="0.2" width="50" height="50" relative="1" as="geometry">
                        <mxPoint x="60" y="530" as="sourcePoint"/>
                        <mxPoint x="130" y="500" as="targetPoint"/>
                        <Array as="points">
                            <mxPoint x="60" y="500"/>
                        </Array>
                        <mxPoint as="offset"/>
                    </mxGeometry>
                </mxCell>
                <mxCell id="29" value="VS Code" style="pointerEvents=1;shadow=0;dashed=0;html=1;strokeColor=none;fillColor=#505050;labelPosition=center;verticalLabelPosition=bottom;verticalAlign=top;outlineConnect=0;align=center;shape=mxgraph.office.concepts.application_generic;fontColor=#000000;" vertex="1" parent="1">
                    <mxGeometry x="189.25" y="620" width="71.5" height="60" as="geometry"/>
                </mxCell>
            </root>
        </mxGraphModel>
    </diagram>
</mxfile>